<?xml version="1.0" encoding="UTF-8"?>
<svg id="Layer_1" data-name="Layer 1" xmlns="http://www.w3.org/2000/svg" viewBox="0 0 263.03 236.95">
  <defs>
    <style>
      .cls-1 {
        fill: #fff;
        stroke-width: 0px;
      }
    </style>
  </defs>
  <path class="cls-1" d="M137.98,0h-33.19c-3.03,0-5.81,1.04-8.02,2.78-1.03.57-2,1.29-2.87,2.16l-46.01,46.01c-.55-.07-1.1-.12-1.67-.12H13.02c-7.19,0-13.02,5.83-13.02,13.02v33.19c0,7.19,5.83,13.02,13.02,13.02h33.19c.53,0,1.04-.04,1.56-.1,3.39.05,6.8-1.22,9.39-3.8l46.96-46.96c.22.01.44.03.67.03h33.19c7.19,0,13.02-5.83,13.02-13.02V13.02c0-7.19-5.83-13.02-13.02-13.02Z"/>
  <path class="cls-1" d="M244.65,31.79h-33.19c-3.03,0-5.81,1.04-8.02,2.78-1.03.57-2,1.29-2.87,2.16l-45.95,45.95c-.37-.03-.74-.06-1.11-.06h-33.81c-4,0-7.57,1.81-9.96,4.64-.11.1-.21.19-.32.29l-46.01,46.01c-.55-.07-1.1-.12-1.67-.12H28.54c-7.19,0-13.02,5.83-13.02,13.02v33.19c0,7.19,5.83,13.02,13.02,13.02h33.19c.53,0,1.04-.04,1.56-.1,3.39.05,6.8-1.22,9.39-3.8l46.93-46.93s.05,0,.08,0h33.81c.59,0,1.17-.05,1.73-.13,3.13-.14,6.21-1.39,8.6-3.78l46.96-46.96c.22.01.44.03.67.03h33.19c7.19,0,13.02-5.83,13.02-13.02v-33.19c0-7.19-5.83-13.02-13.02-13.02Z"/>
  <path class="cls-1" d="M250.01,126.88h-33.19c-3.03,0-5.81,1.04-8.02,2.78-1.03.57-2,1.29-2.87,2.16l-46.01,46.01c-.55-.07-1.1-.12-1.67-.12h-33.19c-7.19,0-13.02,5.83-13.02,13.02v33.19c0,7.19,5.83,13.02,13.02,13.02h33.19c.53,0,1.04-.04,1.56-.1,3.39.05,6.8-1.22,9.39-3.8l46.96-46.96c.22.01.44.03.67.03h33.19c7.19,0,13.02-5.83,13.02-13.02v-33.19c0-7.19-5.83-13.02-13.02-13.02Z"/>
</svg>